<svg xmlns="http://www.w3.org/2000/svg" viewBox="0 0 57 46" enable-background="new 0 0 57 46"><path fill="#7b7b7b" d="M56.9 5.5c-2.1.9-4.3 1.6-6.7 1.8 2.4-1.4 4.2-3.7 5.1-6.4-2.2 1.3-4.7 2.3-7.4 2.8-2.1-2.3-5.1-3.7-8.5-3.7-6.4 0-11.6 5.2-11.6 11.6 0 .9.1 1.8.3 2.7-9.7-.5-18.2-5.1-24-12.2-1 1.7-1.6 3.7-1.6 5.9 0 4 2.1 7.6 5.2 9.7-1.9-.1-3.7-.6-5.3-1.5v.1c0 5.6 4 10.3 9.3 11.4-1 .3-2 .4-3.1.4-.7 0-1.5-.1-2.2-.2 1.5 4.6 5.8 8 10.9 8.1-4 3.1-9 5-14.4 5-.9 0-1.8 0-2.8-.1 5.1 3.3 11.3 5.2 17.8 5.2 21.4 0 33.1-17.7 33.1-33.1v-1.5c2.3-1.7 4.3-3.7 5.9-6z"/></svg>